<?xml version="1.0" encoding="utf-8"?>
<!-- Generator: Adobe Illustrator 26.4.1, SVG Export Plug-In . SVG Version: 6.00 Build 0)  -->
<svg version="1.0" id="Layer_1" xmlns="http://www.w3.org/2000/svg" xmlns:xlink="http://www.w3.org/1999/xlink" x="0px" y="0px"
	 viewBox="0 0 305.97 220.92" style="enable-background:new 0 0 305.97 220.92;" xml:space="preserve">
<style type="text/css">
	.st0{fill:#13408F;}
</style>
<g>
	<rect x="122.4" y="64.4" class="st0" width="8.83" height="61.45"/>
	<path class="st0" d="M176.28,118.46c-12.89,0-23.88-9.19-23.88-23.16c0-10.27,6.94-23.43,24.15-23.43
		c16.04,0,23.79,12.89,23.79,23.06c0,5.32-2.25,11.98-6.13,16.22C189.98,115.76,182.86,118.46,176.28,118.46 M209.35,95.04
		c0-16.49-12.7-31.44-33.16-31.44c-20.99,0-32.89,15.41-32.89,31.71c0,17.12,13.15,31.35,32.43,31.35
		C195.83,126.66,209.35,112.7,209.35,95.04"/>
	<polygon class="st0" points="270.26,64.4 249.9,89.63 229.44,64.4 221.16,64.4 221.16,125.85 229.99,125.85 229.99,78.01 
		249.09,101.79 250.71,101.79 269.63,78.01 269.63,125.85 278.46,125.85 278.46,64.4 	"/>
	<path class="st0" d="M42.95,149.13c0,2.01-0.18,3.09-0.58,3.81c-0.55,0.99-2.02,2.7-5.39,2.7c-2.42,0-3.8-0.81-4.69-1.71
		c-1.07-1.05-1.32-2.1-1.32-4.8v-11.62h-3v11.62c0,1.38,0,3.75,1.16,5.56c1.65,2.58,4.9,3.57,7.84,3.57c2.39,0,4.72-0.6,6.59-2.22
		c2.36-2.07,2.36-4.93,2.36-6.91v-11.62h-2.97V149.13z"/>
	<polygon class="st0" points="70.37,153.4 56.27,137.51 53.85,137.51 53.85,157.99 56.67,157.99 56.67,142.23 70.64,157.99 
		73.21,157.99 73.21,137.51 70.37,137.51 	"/>
	<polygon class="st0" points="102.04,145.92 95.09,137.51 92.27,137.51 92.27,157.99 95.27,157.99 95.27,142.05 101.77,149.98 
		102.32,149.98 108.75,142.05 108.75,157.99 111.75,157.99 111.75,137.51 108.97,137.51 	"/>
	<rect x="120.09" y="137.51" class="st0" width="3" height="20.48"/>
	<path class="st0" d="M141.66,150.52h4.01v4.26c-1.99,0.63-3.03,0.9-4.56,0.9c-5.05,0-8.39-3.39-8.39-7.93c0-4.84,3.95-7.9,8.12-7.9
		c1.16,0,3.98,0.18,7.41,2.13v-3c-2.24-0.93-4.41-1.74-7.35-1.74c-7.17,0-11.3,5.29-11.3,10.69c0,4.65,3.34,10.33,11.43,10.33
		c3.49,0,6.07-0.99,7.66-1.68v-8.65h-7.02V150.52z"/>
	<path class="st0" d="M163.71,146.16c-0.83,0.3-2.45,0.3-2.91,0.3h-1.16v-6.46h0.92c1.81,0,2.79,0.12,3.55,0.48
		c0.98,0.45,1.59,1.56,1.59,2.73C165.71,144.33,165.12,145.62,163.71,146.16 M165.28,148.26c2.27-0.87,3.49-2.67,3.49-5.05
		c0-2.07-1.04-4.11-3.28-5.05c-1.32-0.57-2.6-0.66-3.58-0.66h-5.24v20.48h2.97v-8.92h0.8c1.44,0,2.45,0,4.5,2.58
		c0.67,0.87,3.58,5.35,4.29,6.34h3.55c-1.44-1.98-1.96-2.67-2.85-4.08C168.34,151.39,167.18,149.49,165.28,148.26"/>
	<path class="st0" d="M182.89,149.31l3.12-7.42l3.37,7.42H182.89z M185.01,137.39l-8.98,20.6h3.06l2.63-6.04h8.88l2.79,6.04h3.06
		l-9.34-20.6H185.01z"/>
	<polygon class="st0" points="197.58,140.09 204.75,140.09 204.75,157.99 207.75,157.99 207.75,140.09 215.04,140.09 215.04,137.51 
		197.58,137.51 	"/>
	<rect x="221.63" y="137.51" class="st0" width="3" height="20.48"/>
	<path class="st0" d="M248.16,153.1c-1.44,1.53-3.86,2.43-6.1,2.43c-4.38,0-8.12-3.06-8.12-7.72c0-3.42,2.36-7.81,8.21-7.81
		c5.45,0,8.09,4.3,8.09,7.69C250.24,149.47,249.47,151.69,248.16,153.1 M242.03,137.24c-7.14,0-11.18,5.14-11.18,10.57
		c0,5.71,4.47,10.45,11.03,10.45c6.83,0,11.43-4.66,11.43-10.54C253.3,142.23,248.98,137.24,242.03,137.24"/>
	<polygon class="st0" points="275.57,153.4 261.48,137.51 259.06,137.51 259.06,157.99 261.88,157.99 261.88,142.23 275.85,157.99 
		278.42,157.99 278.42,137.51 275.57,137.51 	"/>
	<path class="st0" d="M59.57,89.33c0.69,0,1.25-0.56,1.25-1.25c0-0.69-0.56-1.25-1.25-1.25c-0.69,0-1.25,0.56-1.25,1.25
		C58.32,88.77,58.88,89.33,59.57,89.33"/>
	<path class="st0" d="M54.83,96.84c0.09,0.06,0.19,0.08,0.28,0.08c0.21,0,0.41-0.12,0.49-0.33l2.23-5.25L58,96.45l-0.84,6.48
		c-0.03,0.25,0.1,0.51,0.35,0.59c0.06,0.02,0.12,0.03,0.19,0.03c0.27,0,0.5-0.2,0.53-0.47l0.8-6.17h1.08l0.8,6.17
		c0.03,0.27,0.27,0.47,0.53,0.47c0.06,0,0.12-0.01,0.19-0.03c0.24-0.09,0.37-0.34,0.35-0.59l-0.84-6.48l0.16-5.11l2.23,5.25
		c0,0,0,0,0,0c0.01,0.03,0.03,0.06,0.04,0.08c0,0.01,0.01,0.01,0.02,0.02c0.01,0.02,0.03,0.04,0.04,0.06
		c0.01,0.01,0.01,0.01,0.02,0.02c0.02,0.02,0.04,0.04,0.06,0.05c0,0,0.01,0.01,0.01,0.01c0.03,0.02,0.05,0.03,0.08,0.04
		c0.01,0,0.02,0,0.02,0.01c0.02,0.01,0.04,0.02,0.07,0.02c0.01,0,0.02,0,0.03,0.01c0.03,0.01,0.06,0.01,0.1,0.01c0,0,0,0,0,0h0.45
		l-0.72,3.65c-0.05,0.26,0.02,0.53,0.18,0.73c0.1,0.13,0.24,0.22,0.39,0.27v1.54c0,0.25,0.2,0.45,0.45,0.45
		c0.25,0,0.45-0.2,0.45-0.45v-1.49h0c0.02,0,0.03,0,0.04,0l0.29,0l0.29,0h0c0.02,0,0.03,0,0.04,0h0v1.49c0,0.25,0.2,0.45,0.45,0.45
		c0.25,0,0.45-0.2,0.45-0.45v-1.55c0.15-0.05,0.29-0.15,0.39-0.27c0.17-0.21,0.24-0.47,0.18-0.73l-0.72-3.64h0.45l0,0
		c0.03,0,0.06,0,0.1-0.01c0.01,0,0.02,0,0.03-0.01c0.02,0,0.05-0.01,0.07-0.02c0.01,0,0.02-0.01,0.02-0.01
		c0.03-0.01,0.06-0.03,0.08-0.04c0,0,0.01-0.01,0.01-0.01c0.02-0.01,0.04-0.03,0.06-0.05c0.01-0.01,0.01-0.01,0.02-0.02
		c0.02-0.02,0.03-0.04,0.04-0.06c0-0.01,0.01-0.01,0.02-0.02c0.02-0.03,0.03-0.05,0.04-0.08c0,0,0,0,0,0l2.31-5.44l0.45,2.21
		c0.07,0.36,0.06,0.74-0.03,1.11l-2.11,9.09h2.91h0.74h2.91l-2.11-9.1c-0.09-0.35-0.1-0.73-0.03-1.09l0.46-2.23l1.78,4.38
		c0.08,0.21,0.29,0.34,0.5,0.34c0.07,0,0.14-0.01,0.2-0.04c0.27-0.11,0.41-0.43,0.3-0.7l-2-4.9c-0.08-0.2-0.28-0.34-0.5-0.34h-0.03
		h-0.87h-0.62h-0.74h-0.6h-0.89h-0.01c-0.22,0-0.41,0.13-0.49,0.33l-2.4,5.65h-2.37l-2.4-5.65c-0.08-0.2-0.28-0.33-0.5-0.33h-1.92
		h-1.92c-0.22,0-0.41,0.13-0.49,0.33l-2.53,5.95C54.52,96.4,54.6,96.7,54.83,96.84"/>
	<path class="st0" d="M71.5,89.33c0.69,0,1.25-0.56,1.25-1.25s-0.56-1.25-1.25-1.25c-0.69,0-1.25,0.56-1.25,1.25
		S70.81,89.33,71.5,89.33"/>
	<path class="st0" d="M65.56,95.57c0.52,0,0.94-0.42,0.94-0.94c0-0.52-0.42-0.94-0.94-0.94c-0.52,0-0.94,0.42-0.94,0.94
		C64.62,95.15,65.04,95.57,65.56,95.57"/>
	<path class="st0" d="M71.25,112.31c-2.26,0.12-4.4,0.63-6.38,1.45c-2.91-1.28-5.65-3.48-7.72-6.24h14.1V112.31z M71.25,121.56
		c-3.88-0.2-7.54-1.28-10.8-3.07c2.83-2.63,6.61-4.32,10.8-4.58V121.56z M49.64,107.52h5.45c2.05,3.07,4.81,5.6,7.77,7.22
		c-1.43,0.8-2.73,1.77-3.88,2.89C55.11,115.16,51.89,111.67,49.64,107.52 M46.29,96.49h5.32c0,0.05,0,0.1,0,0.13
		c0,3.17,0.88,6.24,2.34,8.98h-5.25C47.43,102.8,46.6,99.73,46.29,96.49 M39.11,94.58c-0.01-0.24-0.02-0.61-0.02-0.82
		c0-3.2,0.97-6.29,2.57-8.98h32.98c1.59,2.69,2.57,5.78,2.57,8.98c0,0.04,0,0.08,0,0.13h-0.02l-0.03,1.91h14.23
		c0,0.24,0.01,0.61,0.01,0.82c0,3.2-0.97,6.29-2.57,8.98H55.87c-1.59-2.69-2.56-5.78-2.56-8.98c0-0.04,0-0.08,0-0.13h0l0.03-1.91
		H39.11z M31.69,94.58c0.26-3.48,1.12-6.79,2.46-9.8h5.6c-1.46,2.74-2.34,5.81-2.34,8.98c0,0.15,0,0.55,0.01,0.82H31.69z
		 M44.66,72.64c1.18,1.17,2.53,2.19,4.01,3.02c-2.96,1.62-5.72,4.15-7.77,7.22h-5.8C37.39,78.64,40.69,75.11,44.66,72.64
		 M57.33,78.1v4.78H42.95c2.08-2.76,4.82-4.96,7.73-6.24C52.73,77.49,54.97,78,57.33,78.1 M57.33,68.82v7.68
		c-4.36-0.2-8.3-1.96-11.19-4.71C49.51,69.98,53.31,68.92,57.33,68.82 M59.25,78.09c2.26-0.12,4.4-0.63,6.38-1.45
		c2.91,1.28,5.65,3.48,7.73,6.24H59.25V78.09z M59.25,68.84c3.88,0.2,7.53,1.28,10.8,3.07c-2.82,2.62-6.6,4.32-10.8,4.57V68.84z
		 M80.86,82.88h-5.46c-2.04-3.07-4.8-5.6-7.77-7.22c1.42-0.8,2.73-1.77,3.88-2.89C75.39,75.24,78.61,78.72,80.86,82.88 M84.21,93.9
		h-5.32c0-0.05,0-0.1,0-0.13c0-3.17-0.88-6.24-2.34-8.98h5.25C83.07,87.6,83.9,90.67,84.21,93.9 M98.81,95.81
		c-0.26,3.48-1.12,6.79-2.46,9.8h-5.6c1.46-2.74,2.34-5.81,2.34-8.98c0-0.16,0-0.55-0.01-0.82H98.81z M85.84,117.75
		c-1.18-1.17-2.53-2.19-4.01-3.02c2.96-1.62,5.72-4.15,7.77-7.22h5.8C93.11,111.75,89.81,115.28,85.84,117.75 M73.17,112.29v-4.78
		h14.38c-2.08,2.76-4.82,4.96-7.73,6.24C77.77,112.9,75.53,112.39,73.17,112.29 M73.17,121.58v-7.68c4.36,0.2,8.29,1.96,11.19,4.71
		C80.99,120.42,77.19,121.47,73.17,121.58 M103.16,93.33c0-9.76-4.47-20.68-11.75-28.81h-6.49c1.7,1.56,4.06,4.29,4.06,4.29
		c6.26,7,9.91,16.39,9.91,24.78c0,0.1,0,0.21,0,0.31H88.5c-1.58-16.4-14.64-29.38-30.51-29.38c-16.93,0-30.66,14.57-30.66,32.55
		c0,9.76,4.48,20.68,11.75,28.81h6.49c-1.69-1.56-4.06-4.29-4.06-4.29c-6.26-7-9.91-16.39-9.91-24.78c0-0.1,0-0.21,0-0.31H42
		c1.58,16.4,14.65,29.38,30.51,29.38C89.44,125.88,103.16,111.31,103.16,93.33"/>
</g>
</svg>
