<?xml version="1.0" encoding="UTF-8"?>
<svg id="Capa_1" data-name="Capa 1" xmlns="http://www.w3.org/2000/svg" viewBox="0 0 612 792">
  <defs>
    <style>
      .cls-1 {
        fill: #0b9eda;
      }

      .cls-1, .cls-2 {
        stroke-width: 0px;
      }

      .cls-2 {
        fill: #00aeef;
      }
    </style>
  </defs>
  <g>
    <path class="cls-2" d="M535.75,444.29s1.01-.39,2.55-1.77c1.54-1.36,1.79-3.15,3.17-4.89,1.53-1.93,4.8-4.95,4.8-4.95,0,0-1,4.16-1.94,6.1-1.38,2.82-2.9,3.69-2.9,3.69,0,0,.76.53,1.78.07,1.02-.45,2.1-1.01,3.64-.85,1.54.17,3.45.22,5.38-.91,1.93-1.14,3.64-2.25,3.64-2.25,0,0-1.21,3.7-6.03,5.76-3.1,1.33-6.74,1.3-7.88.68-1.14-.62-2.5-.92-3.46-.64-.97.29-2.75-.05-2.75-.05"/>
    <path class="cls-2" d="M551.32,424.55s.04,3.58.26,4.83c.23,1.25-.04,2.79-.56,3.98-.51,1.2-1.38,2.9-.75,3.24.64.34.85-1.02,2.22-2,1.36-.97,3.85-2.24,5.2-3.05,2.18-1.32,3.84-3.77,3.84-3.77,0,0-.96,5.58-5.65,8.81-3.1,2.14-9.25,2.68-9.25,2.68,0,0,.65-.58.99-2.06.34-1.47.5-4.6,1.12-6.59.62-1.99,2.58-6.08,2.58-6.08"/>
    <path class="cls-2" d="M553.86,416.45s1.77,4.46,2,5.7c.22,1.25-.13,4.98-.13,4.98,0,0,1.46-1.32,2.89-3.57,1.12-1.77,2.72-2.39,3.64-3.82.9-1.42,1.26-1.99,1.26-1.99,0,0-.89,3.95-1.89,6.26-1.65,3.85-8.24,7.92-8.24,7.92,0,0,.35-1.13.52-3.34.17-2.21-.39-4.79-.55-6.44-.15-1.58.51-5.69.51-5.69"/>
    <path class="cls-2" d="M553.75,407.33s.52.62,1.59,2.33c1.08,1.7,2.5,3.52,2.56,4.55.05,1.02.57,2.28.91,2.22.34-.06.34-1.22.85-2.99.51-1.76,2.03-3.5,2.28-4.8.2-1.06.62-2.56.62-2.56,0,0,.8,4.49-.16,8.13-.97,3.64-3.12,5.39-3.46,5.86-.35.45-.98,1.08-.98,1.08,0,0,.34.33-.68-1.94-1.02-2.28-1.73-3.68-2.63-5.36-.69-1.28-.9-6.52-.9-6.52"/>
    <path class="cls-2" d="M551.47,399.81s2.48,1.43,3.61,2.66c1.27,1.38,2.7,3.95,3.16,3.84.46-.12-.03-2.28.09-3.13.12-.85.45-4.69.28-5.71-.17-1.02-.48-2.47-.48-2.47,0,0,2.83,4.13,2.77,7.09-.05,2.96.09,3.61-1.25,5.92-.7,1.22-1.14,2.9-1.14,2.9,0,0-.41-.87-1.38-2.06-.97-1.2-3.05-3.25-3.79-5.07-.75-1.82-1.86-3.96-1.86-3.96"/>
    <path class="cls-2" d="M547.72,392.58s.71.65,1.84,1.44c1.14.8,2.57,1.34,3.37,2.13.79.79,1.79,1.72,2.19,1.49.39-.22-.12-.94-.73-2.65-.63-1.71-.64-3.4-1.14-4.14-.5-.73-.97-2.19-.97-2.19,0,0,3.12,2.43,3.7,4.42.57,1.98.5,8.25.5,8.25,0,0-.56-.79-1.64-1.59-1.08-.79-3.8-2.76-4.72-3.49-1.68-1.29-2.39-3.68-2.39-3.68"/>
    <g>
      <path class="cls-2" d="M545.18,385.9s2.51.68,4.1,2.04c1.59,1.37,2.9,5.13,2.9,5.13,0,0-2.62-1.32-3.7-2.34-1.08-1.02-3.3-4.82-3.3-4.82"/>
      <path class="cls-2" d="M496.83,446.34s2.88,1.49,5.1,1.32c2.22-.17,4.28-.9,7.95-1.86,3.67-.94,6.47-1.15,8.12-.86,1.64.28,4.53.66,4.53.66,0,0,3.75-.58,6.67-.74,1.48-.09,3.45.35,5.64,1.03,2.12.67,5.98,1.9,8.12,1.93,3.17.04,5.56-1.2,5.56-1.2,0,0-.31,2.32-7.91,3.05-4.52.42-6.38.08-8.36-1.19-1.98-1.28-4.17-2.34-5.15-2.38-.99-.05-2.48.08-2.48.08,0,0,2.72.99,4.08,2.06,1.35,1.07,4.86,3.95,4.86,3.95l-.87,1s-1.35-1.98-3.58-3.59c-2.23-1.6-5.34-3.21-6.5-3.21s-4.94,1.73-7.37,3.99c-2.33,2.18-2.6,2.72-2.6,2.72l-.91-.91s1.78-1.77,4.16-3.33c2.38-1.57,4.9-2.81,4.9-2.81,0,0-.08-.25-1.52-.12-1.44.12-2.59.29-5.06,1.81-2.48,1.52-3.43,1.89-5.56,2.13-2.09.25-6.27-.16-8.77-1.23-2.51-1.07-3.04-2.3-3.04-2.3"/>
    </g>
    <path class="cls-2" d="M489.2,438.19s2.3,1.82,3.37,2.43c2.4,1.36,4.5.74,6.01.95,1.53.21,2.89.57,3.34.79.46.21,1.81.33,1.94.09.14-.29-1.23-.86-2.27-2.68-1.51-2.67-2.39-7.04-2.39-7.04,0,0,2.26,1.6,4.32,4.32,2.06,2.72,1.78,4.06,3.22,5.27,1.52,1.27,2.93,1.97,2.93,1.97,0,0-1.89-.2-3.24-.08-1.36.12-3.64,1.05-5.73,1.01-2-.04-5.85-.21-9.07-3.79-2.15-2.38-2.44-3.25-2.44-3.25"/>
    <path class="cls-2" d="M483.44,427.98s1.36,1.81,3.35,3.41c1.98,1.6,4.98,2.55,6.01,3.71,1.03,1.16,1.47,2.1,2.05,1.82.58-.29-.35-1.29-.73-2.8-.38-1.53-.7-5.6-.38-7.17.18-.82.09-2.06.09-2.06,0,0,.91,1.55,1.98,3.95.98,2.22.91,6.05,1.35,7.75.45,1.78,1.4,2.95,1.4,2.95,0,0-3.05-.16-4.57-.73-1.52-.58-5.8-2.14-7.41-4.78-1.6-2.63-3.14-6.05-3.14-6.05"/>
    <path class="cls-2" d="M481.57,417.8s.62,1.58,1.6,2.52c1,.94,1.6,1.4,2.75,2.75.81.95,2.73,4.63,3.34,4.53.49-.08-.25-1.98-.05-3.83.34-3.17,2.31-6.91,2.31-6.91,0,0,.46,3.89.33,6.21-.11,2.31-.91,4.9-.62,6.22.28,1.32.45,2.96.45,2.96,0,0-3.01-2.01-5.15-3.94-2.13-1.95-4.07-6.18-4.44-7.5-.37-1.31-.53-3.01-.53-3.01"/>
    <path class="cls-2" d="M482.37,406.28s-.38,5.71.34,8.32c1.14,4.19,4.36,6.88,4.36,6.88,0,0,.28-1.44.99-2.93.7-1.48,1.82-2.95,2.27-4.15.87-2.36,1.07-6.55,1.07-6.55,0,0-.78,1.18-1.48,2.14-.7.95-1.56,2.09-2.23,3.66-.66,1.57-.74,3.02-1.48,3.09-1.04.09-.16-1.4-1.03-3.42-.86-2.02-2.1-4.08-2.22-5.06-.12-.99-.58-1.98-.58-1.98"/>
    <path class="cls-2" d="M486.89,395.22s-2.27,3.09-2.6,5.92c-.32,2.85-.11,5.13.99,7.01.74,1.28.98,3.17.98,3.17,0,0,.38-.98,1.32-2.02.94-1.03,2.59-2.5,3.74-4.48,1.16-1.98,2.19-4.58,2.19-4.58,0,0-1.85,1.04-2.88,1.99-2.6,2.36-3.87,4.61-3.87,4.61,0,0-.73-.66-.49-1.61.26-.95.38-2.4.3-3.46-.09-1.06-.42-1.68-.23-3,.23-1.32.55-3.54.55-3.54"/>
    <path class="cls-2" d="M493.05,388.83s-3.04,1.85-3.87,4.16c-.62,1.76-.37,3.62-.66,5.48-.28,1.85.08,3.13.08,3.13,0,0,.24-.46,1.33-1.6,1.07-1.15,2.76-1.85,3.94-2.69,2.56-1.77,3.71-4.65,3.71-4.65,0,0-1.49,1.36-2.23,1.78-.73.41-2.13,1.07-3.15,1.81-.75.52-1.36,2.08-1.36,2.08,0,0-.96-.89-.63-1.88.33-.99.82-1.73,1.02-2.72.21-.99.5-2.43.91-3.17.39-.69.9-1.73.9-1.73"/>
    <path class="cls-2" d="M495.27,388.68c1.24-1.19,4.69-2.46,4.69-2.46,0,0-1.48,2.48-3.09,4.12-1.86,1.91-4.21,3.04-4.21,3.04,0,0,.46-2.64,2.6-4.7"/>
    <path class="cls-2" d="M511.42,392.76c3.19,0,9.59,3.44,9.59,8.04,0,2.88-2.23,4.82-2.23,4.82,0,0,.09,1.6-.13,2.09-.42.93-.84.65-1.39,1.49-.56.83-.79,2.13-3.11,2.13s-2.28-.74-3.39-.74-1.85,1.07-1.85,1.07v8.31s.23,1.06,2.32,2.17c2.08,1.12,3.72,1.81,4.36,1.81s.64-.74,1.43-.74,3.99,0,3.99,1.49-1.58,2.5-7.33,2.5-7.51-.46-8.16-.46-.74.14-.74,1.02-.04,2.13-.04,2.13c0,0,.96,1.53,2.13,2.14,1.16.6,1.81.93,3.11.93s3.24-.42,4.82-1.12c1.58-.69,3.1-1.11,4.92-1.11s5-.42,5-2.27-.69-2.51-.69-3.94.23-2.7-.46-3.39c-.69-.69-3.76-2.91-3.76-4.17s1.12-1.81,1.25-2.5c.14-.7.04-1.11.51-1.25.46-.14.83-.33.83-.33l.23-1.16s.61-.28.93-.56c.32-.27.6-.46.6-.46,0,0-.27-.88.24-1.44.51-.55,1.21-.42,1.72-.42s2.08-.18,2.08-.18c0,0,.51-.91,1.08-1.34.93-.7,3.47-1.07,4.12-1.58.65-.51,1.34-1.76,3.06-1.76,7.04,0,11.77,6.36,11.77,9.79,0,5.93-3.85,13.12-9.22,13.12-4.22,0-3.94,1.25-3.94,2.64,0,3.25,3.16,3.85,3.16,3.85,0,0-6.64,5.01-14.33,5.01s-14.59-2.7-19.83-8.47c-3.61-3.96-6.35-9.23-6.35-16.46,0-2.84,0-3.32,0-3.32,0,0,1.91-1.5,3.08-2.09,1.17-.58,3.75-2.09,3.75-3.34s-.48-1.71-.48-4.33c0-1.21.3-3.41,1.4-4.9,1.29-1.74,3.54-2.7,5.97-2.7"/>
    <path class="cls-2" d="M522.81,385.13c-15.47,0-28.01,12.54-28.01,28.01s12.54,28.01,28.01,28.01,28.01-12.54,28.01-28.01-12.54-28.01-28.01-28.01h0ZM543.72,395.77c1.46,1.72,2.1,2.96,2.1,2.96,0,0-.97.99-2.09,1.52-1.12.53-3.22,1.32-3.22,1.32,0,0-.77-2.39-1.39-3.66-.62-1.27-1.26-2.77-1.26-2.77,0,0,.62-.42,1.53-1.07.91-.64,1.53-1.21,1.53-1.21,0,0,1.57,1.45,2.79,2.9h0ZM534.48,388.57s1.9.83,3.17,1.78c1.27.94,2.74,2.09,2.74,2.09,0,0-.23.4-.93.93-.71.54-1.75,1-1.75,1,0,0-.94-1.32-1.73-2.33-.79-1-2.27-2.72-2.27-2.72,0,0,.33-.32.51-.53.18-.21.27-.23.27-.23h0ZM530.81,394.41c-.3-1.3-1.01-2.5-1.01-2.5,0,0,1.16-.57,1.93-1.06.77-.5,1.39-1,1.39-1,0,0,1.33,1.33,2.3,2.54.96,1.21,1.65,2.37,1.65,2.37,0,0-1.24.56-2.65,1.2-1.41.65-3.19.91-3.19.91,0,0-.12-1.15-.41-2.45h0ZM531.52,403.97s-.65.18-2.83.27c-2.18.09-4.11-.04-4.11-.04v-6.2s1.69.11,2.93.11,3.33-.37,3.33-.37c0,0,.12.97.38,2.54.27,1.56.3,3.69.3,3.69h0ZM532.22,387.6c.77.21,1.67.75,1.67.75l-.81.63s-.59-.53-1.09-1.04c-.58-.58-1.76-.93-1.76-.93,0,0,1.22.38,1.99.59h0ZM530.01,387.39c1.43.78,2.51,2.03,2.51,2.03,0,0-.53.35-1.27.89-.73.54-1.78.75-1.78.75,0,0-.65-1.55-1.12-2.43-.44-.82-1.88-2.36-1.88-2.36,0,0,2.11.35,3.53,1.13h0ZM524.45,386.1s1.53-.41,2.93,2.24c.73,1.37,1.39,2.93,1.39,2.93,0,0-1.08.33-2.17.45-1.09.11-2.15-.06-2.15-.06v-5.57h0ZM524.44,392.46s1.05.09,2.27,0c1.22-.08,2.38-.34,2.38-.34,0,0,.42.44.81,2.2.35,1.6.54,2.74.54,2.74,0,0-1.29.35-3.11.47-1.83.12-2.89-.09-2.89-.09v-4.98h0ZM523.62,386.1l.1,5.65s-1.21.11-2.54-.25c-1.33-.36-1.94-.75-1.94-.75,0,0,.71-1.42,1.62-2.66,2.02-2.77,2.76-1.98,2.76-1.98h0ZM521.9,385.95s-1.3,1.22-1.88,2.34c-.58,1.12-1.36,2.19-1.36,2.19,0,0-1.01-.43-1.69-.94-.68-.5-1.05-.86-1.05-.86,0,0,1.11-1.26,3.09-1.98,1.98-.72,2.89-.75,2.89-.75h0ZM516.65,386.6c1.05-.25,1.87-.32,1.87-.32,0,0-1.15.57-1.8,1.07-.65.5-1.22.87-1.22.87,0,0-.31-.22-.47-.47-.15-.25-.22-.57-.22-.57,0,0,.79-.32,1.84-.57h0ZM522.86,440.3c-13.76,0-27.26-10.97-27.26-27.1,0-20.22,18.38-25.77,18.38-25.77l1.11,1.04s-.98.64-1.77,1.47c-.79.83-1.26,1.55-1.26,1.55l.47.43s.57-.84,1.22-1.48c.65-.65,1.59-1.4,1.59-1.4,0,0,.94.97,1.55,1.33.61.36,1.47.75,1.47.75,0,0-.07.47-.32,1.05-.25.58-.5,1.33-.5,1.33l.58.32s.4-1.11.61-1.55c.22-.43.39-.86.39-.86,0,0,1.37.58,2.56.83,1.19.25,2.05.22,2.05.22v4.82h-1.76v.82h1.82v6.05h-1.53v.68h1.49v2.23h.74v-2.16s.97.04,3.49-.07c2.52-.11,4.14-.36,4.14-.36,0,0-.07-2.3-.29-3.99-.22-1.69-.58-2.99-.58-2.99,0,0,1.44-.18,3.02-.83,1.59-.65,2.95-1.26,2.95-1.26,0,0,.84,1.22,1.48,2.95.64,1.73,1.25,3.48,1.25,3.48l-1.07.47.18.54,1.25-.37.36.75.48-.21-.35-.76s1.48-.44,2.96-1.24c1.48-.8,2.56-1.55,2.56-1.55,0,0,3.71,5.64,3.71,13.65,0,12.32-9.52,27.16-27.15,27.16"/>
    <path class="cls-2" d="M252.84,450.84v-7.07l-.19-.19c-3.44,5.68-7.63,8.66-15.45,8.66-7.17,0-15.82-3.44-15.82-15.08v-34.99h8.19v32.3c0,8,4.1,10.7,9.4,10.7,10.33,0,13.4-9.12,13.4-16.19v-26.8h8.19v48.68h-7.72"/>
    <path class="cls-2" d="M312.5,450.84h-8.19v-29.97c0-8.47-2.42-12.75-10.43-12.75-4.65,0-12.84,2.97-12.84,16.19v26.52h-8.19v-48.68h7.72v6.89h.18c1.77-2.61,6.33-8.29,14.71-8.29,7.53,0,17.03,3.07,17.03,16.94v33.13"/>
    <path class="cls-2" d="M324.79,393.33v-9.3h8.19v9.3h-8.19ZM332.98,450.84h-8.19v-48.68h8.19v48.68"/>
    <path class="cls-2" d="M375.7,418.55c-1.02-6.51-4.66-10.42-11.54-10.42-10.15,0-13.4,9.67-13.4,18.33s2.05,18.7,13.31,18.7c5.5,0,10.24-4.09,11.64-11.54h7.91c-.84,7.72-5.59,18.61-19.82,18.61s-21.78-10.33-21.78-24.38c0-15.08,7.26-27.08,23.36-27.08,12.75,0,17.59,9.31,18.24,17.78h-7.91"/>
    <path class="cls-2" d="M433.12,435.58c-.28,2.33-2.51,9.21-8.66,13.31-2.23,1.49-5.4,3.35-13.21,3.35-13.68,0-21.78-10.33-21.78-24.38,0-15.08,7.26-27.08,23.36-27.08,14.05,0,20.94,11.17,20.94,28.39h-35.55c0,10.14,4.74,16,14.14,16,7.73,0,12.29-5.96,12.56-9.58h8.19ZM425.3,422.64c-.47-7.53-3.63-14.51-13.59-14.51-7.54,0-13.49,6.98-13.49,14.51h27.08"/>
    <path class="cls-2" d="M453.69,408.96v41.88h-8.19v-41.88h-6.7v-6.79h6.7v-8.38c0-7.35,4.66-10.7,12.66-10.7,1.21,0,2.42.09,3.73.18v7.35c-1.03-.1-2.33-.19-3.35-.19-3.53,0-4.84,1.77-4.84,5.68v6.05h8.19v6.79h-8.19"/>
  </g>
  <path id="path6" class="cls-1" d="M100.96,336.73c-4,0-2.31,5.95-2,7.91,0,.09.31,13.46.4,16.53.62-.18,1.2-.31,1.82-.45l1.2-.31c.04-2.98.36-15.73.36-15.81.27-2.04,2.36-7.87-1.78-7.87ZM104.07,343.17l-.05.18c-.04.31-.13.58-.18.84,6.89.67,13.33,3.69,18.26,8.53l-3.47,3.46.13-.62-.44-.22-.58.05.13-.4-.4-1.42-.84-.93-2.71-1.42-.22.26-.49.14c.93,1.33,1.42,2.93,1.42,4.53v.62l1.33,1.69-.62.13.4.62-1.2,1.2-.49-.89c-.22.62-.53,1.24-.89,1.78l.27.22-3.69,3.64c-.22-.22-.44-.4-.66-.62-.36.18-.71.31-1.07.45l.31.22-.18.18-.44.22-.18.45-.27-.27-.76.27.22.36.53-.14.36.05.05-.18.26-.13.09-.13.49-.14h.36l.22.18-1.42,1.47-.09-.13-1.51.27-.36.36-.31.04.93-.89-.36-.18-.89,1.16.27-.05v.45l.31.13.05.44-.53-.09-.53.09-1.33-.66s-.09,3.56-.09,5.33c3.11,1.07,6.44,2.57,6.44,6.57.04,1.69-.85,3.29-2.27,4.22l-.09.05-.09.09c-1.24.84-2.89,1.29-4.31,1.73l-.05,2.8c2.27,1.11,4.98,2.75,4.71,7.37-.04,1.16-.49,1.46-.84,1.55-1.33.31-2.71.54-4.04.62v1.02c5.86-.4,11.38-2.84,15.64-6.89l3.64,3.64c-11.68,11.28-30.21,11.29-41.94.09l3.64-3.64c4.22,3.95,9.68,6.35,15.46,6.8v-1.02c-5.51-.44-10.66-2.71-14.66-6.53l.93-.97,1.33.13.71-.76,1.86.09.27-.67-.09-.26c2.75,2.09,6.04,3.42,9.51,3.78v-1.02c-3.82-.44-7.38-2.04-10.22-4.66l3.64-3.64c.89.8,1.87,1.47,2.98,2,.09-.36.18-.66.36-.97-.93-.49-1.82-1.07-2.58-1.74l3.64-3.64c.58.44,1.24.84,1.91,1.07v-1.11c-.44-.18-.84-.44-1.2-.71l1.02-1.02c-.36-.09-.71-.22-1.07-.36l-.71.72c-.36-.4-.67-.84-.89-1.29-.62-.27-1.24-.58-1.82-.98-2.13-1.29-3.42-3.64-3.38-6.18-.04-1.69.44-3.38,1.47-4.71l-3.64-3.64c2.67-2.58,6.09-4.22,9.73-4.8v-1.02c-3.91.58-7.6,2.36-10.44,5.11l-.62-.62c-.13.22-.31.53-.49.93l.4.4c-3.24,3.42-5.07,7.95-5.16,12.66h-5.2c.09-6.09,2.44-11.9,6.66-16.35l1.64,1.64h.22c.31-.04.67-.14.93-.27l-2.09-2.09c1.11-1.07,2.31-2.04,3.6-2.89.09-.27.14-.53.27-.76.22-.36.49-.71.8-1.07-1.95,1.07-3.73,2.4-5.33,3.95l-3.64-3.64c4.89-4.75,11.24-7.73,18.08-8.44,0-.13-.05-.22-.05-.22-.04-.27-.09-.49-.13-.8-17.28,1.78-29.76,17.19-27.94,34.43,1.69,15.95,15.1,28.08,31.14,28.03,17.33,0,31.37-14.08,31.32-31.41,0-16.08-12.17-29.55-28.17-31.19h0ZM77.55,344.42c-5.64,1.2-10.35,6.17-11.64,12.3,1.78-2.09,4.84-3.29,6.58-5.33,1.73-2.09,2.31-4.93,5.06-6.97ZM124.19,344.42c2.75,2.04,3.33,4.89,5.06,6.97,1.73,2.09,4.75,3.29,6.53,5.37-1.29-6.13-6-11.15-11.6-12.35ZM105.14,346.37l-.4.26-.89-.09v.22c.58.04,1.15.09,1.6.18l.76-.05.76.05.31-.27-.58-.26-1.55-.05ZM103.72,347.88c0,.49-.05,1.6-.05,1.6,0,.36-.05,1.64-.05,1.91.36.04.76.09,1.11.13,3.33.8,4.53,2.71,4.53,4.58,0,3.07-2.62,4.22-5.82,5.11l-1.07.26c-.98.22-2,.49-2.97.76-.36.09-.71.18-1.07.31-3.55,1.07-6.62,2.8-6.62,7.2s3.51,6,6.93,7.06c0-1.24-.05-2.53-.09-3.78-1.55-.71-2.57-1.64-2.57-3.2s.98-2.44,2.44-3.11c.31-.13.67-.27,1.07-.4.84-.31,1.82-.53,2.8-.8l1.07-.27c4.8-1.16,10.22-2.66,10.17-9.1,0-3.24-2.35-6.8-8.08-8.04-.58-.09-1.15-.18-1.73-.22h0ZM98.03,348.37c-1.07.36-2.13.76-3.15,1.29-1.11.36-2.71.44-4.35,2.22-.53.62-1.02,1.29-1.51,1.95-.49.71-.53,1.87-.89,2.45-.53.89-.4,1.42-.4,1.42-.09.4-.31.8-.57,1.11-.53.62-1.34.93-2.14.8.76.36,1.78-.13,1.78-.13-.18.49-.31.98-.4,1.47.84-1.91,1.6-2.57,1.86-2.8.36.09,1.11.04,2.49-.76,1.55-.89,3.91-2.36,4.57-3.29.71-.93,1.64-1.69,2.76-2.09,0-1.33-.05-2.57-.05-3.64h0ZM66.8,349.52c-7.51,5.6-4.31,14.57-4.71,17.42,3.87-8.4,9.6-6.62,12.04-14.57-1.42,2.4-7.69,3.42-10.58,9.68,1.51-3.73.76-9.42,3.24-12.53ZM134.99,349.52c2.53,3.07,1.78,8.8,3.24,12.53-2.93-6.26-9.19-7.29-10.57-9.77,2.44,8,8.17,6.22,12.04,14.57-.4-2.8,2.8-11.82-4.71-17.33ZM115.35,350.68l-.53.4.66.36.76.53.09-.45-.31-.49-.67-.36ZM91.63,352.86l1.11.05-1.29,1.38-.8.18.98-1.6ZM79.06,353.44l3.64,3.64c-4.4,4.58-6.88,10.71-6.97,17.06h-5.16c.09-7.77,3.11-15.15,8.49-20.7ZM122.86,353.52c5.33,5.55,8.31,12.93,8.39,20.61h-5.15c-.04-3.82-.94-7.6-2.67-11.02l.05-.09.36.18.09-.26-.93-1.6-1.11-1.51-1.29-1.07c-.44-.53-.89-1.07-1.38-1.6l3.64-3.64ZM103.54,355.61v1.02c1.47.22,2.88.62,4.22,1.15.18-.31.31-.62.36-.93-1.47-.62-3.02-1.02-4.57-1.24ZM60.71,356.99c-6.89,9.73.4,15.55.66,19.1,1.73-6.8,5.87-6.84,8.53-15.81-.71.98-1.2,1.42-3.07,2.93-2.8,2.22-4.75,5.38-5.42,8.89.18-4.35-2.49-10.57-.71-15.1ZM141.08,356.99c1.78,4.53-.89,10.75-.76,15.1-.71-3.51-2.62-6.66-5.42-8.89-1.87-1.55-2.35-1.95-3.07-2.93,2.67,8.97,6.79,9.02,8.57,15.81.27-3.51,7.56-9.33.67-19.1h0ZM86.34,360.01c-.22.04-.4.09-.62.05l.49.53c.04-.18.09-.4.13-.58h0ZM116.29,360.14l1.24.05.31.36-.13.53,1.74,1.07.36-.04,2.18,2.53.89-.31c1.42,3.07,2.17,6.44,2.22,9.82h-5.15c0-1.33-.18-2.62-.49-3.91l.22-.31.31-1.64-.22-1.73-.62-2-1.42-2.09.36.18.18-.18-1.15-.8-.09.27,1.16,1.64.66,1.33.45,1.33.13.89.22,1.51-.45.05s-.49-.93-.66-1.33l.22-.36-.45-.62v-.58l-.31-.4-.4.05c-.13-.27-.27-.53-.45-.76l.27.14.09-.09-.13-.31.36-.18-.13-.18-.49.18.18-.8-.31-.18-.26.62c-.58-.84-1.2-1.65-1.87-2.4l1.47-1.33ZM87.77,362.14l3.64,3.64c-.76.84-1.42,1.78-1.91,2.8h-.27l-.53.13h-.18l-.53.49.71-.09.62-.14-.13.18-.53.36h-.26l-.8.62-.76-.09-1.11,2.09.22.4-.62.71-.09.89h-2.31c.04-4.49,1.78-8.75,4.84-12h0ZM114.11,362.28c.84.93,1.6,1.95,2.27,3.02l-.45.13.05.8,1.33.84c.36.76.63,1.51.85,2.31l-.22.36-.49.36-.14.76-.36.18-.26.36-.27-.13h-.49l.27-.4.22-1.02.36-.22-.97-.93-.71.27-.18.71-.45.49-.49-.4-.18-.44.26-.18.14.26.22-.09-.09-.45h-.31v.18l-.22.05-1.11-1.33-.4-.31.13-.13.36-.13-.36-.14s-.4.09-.44.09l.22.31h-.58c-.36-.58-.71-1.07-1.16-1.51l3.64-3.64ZM114.73,363.74l-.8.4-.26.49-.18.44.36.58-.14.26-.49.18.05.4.89-.26.26-.53-.62-.8.31-.49.84.58.14-.14-.18-.13-.18-.36.36-.18-.36-.44ZM102.25,366.63c-.93.22-1.87.49-2.76.8.04,1.6.27,13.46.27,14.75.44-.13.88-.31,1.28-.4.31-.09.58-.18.89-.27,0-.84.27-12.75.31-14.88ZM109.76,366.63c.36.4.67.8.98,1.25l-.18.57-.49-.36-.4.09.18.36h.18l-.22.53-.13-.22-.58-.18.44-.09v-.09l-.44-.31.13-.98.53-.58ZM98.38,367.83c-.89.53-1.33,1.16-1.38,2,0,.89.53,1.47,1.47,2v-.4l-.58-.62.31-.57.27-.09c-.04-1.02-.05-2.13-.05-2.31h-.05ZM56.63,367.87c-2.8,11.82,4.66,13.19,6.62,18.17-.31-7.11,4.22-8.53,3.87-16.66-2,3.87-5.16,4.76-4.8,12.71-1.69-7.06-5.73-9.73-5.68-14.22ZM145.12,367.87c.04,4.53-4,7.15-5.68,14.26.36-8.04-2.76-8.89-4.8-12.75-.4,8.13,4.18,9.55,3.87,16.66,1.91-4.93,9.42-6.35,6.62-18.17h0ZM118.29,369.65c.09.27.13.53.22.8l-.49,1.47v.49l.62-1.02c.13.89.22,1.82.27,2.71h-4.53l-.09-.4.53-.4.09-.27.22-.18.62-.09.05-.27-.53-.27.93-.49.93-.13.22-.45.53-.31.22-.44.18-.76ZM86.97,371.96l1.11.18.18.18c-.09.58-.13,1.2-.18,1.78h-1.24l-.58-.76.09-1.02.62-.36ZM103.14,374.67c-.04,1.02-.05,2.49-.09,3.51,1.2.44,2,1.03,2,1.96,0,1.16-1.2,1.78-2.09,2.13-.36.13-.89.31-1.07.36-.71.22-1.42.44-2.13.71-.36.13-.71.26-1.07.44-1.16.62-2.45,1.56-2.45,3.16,0,1.78,1.29,2.71,2.58,3.47,0-.31-.05-3.02-.05-3.07.04-.53.54-.89.98-1.07.67-.31,1.38-.58,2.09-.8.4-.13.71-.27,1.07-.36,2.62-.8,5.64-1.78,5.64-4.97s-2.58-4.49-5.42-5.47h0ZM76.75,375.11h5.16c0,.49.04.98.13,1.51l-.62.13-.13.62-1.33,1.69.05,2.31-1.33.44h-.76c-.71-2.18-1.07-4.4-1.16-6.71h0ZM119.93,375.11h5.15c-.18,6.04-2.58,11.77-6.8,16.08l-.71-.71.4-.44-.4-2-.27-.09.18-.36-.84-.26-.18.71-.09.89-.18.18-1.56-1.55c3.24-3.38,5.11-7.78,5.29-12.44h0ZM126.06,375.11h5.15c-.18,7.64-3.24,14.97-8.62,20.44l-3.6-3.64c4.4-4.53,6.93-10.53,7.06-16.79h0ZM70.57,375.16h5.16c.04,2.22.44,4.49,1.11,6.62l-.31-.05-.31-.31-1.47-.14.45.62-1.33-.27.36-.31-.31-.31-.98.4-.36.62.14,1.47,1.11,2.66.53.84.31.09-.85-1.6-.18-.8.18-.18-.13-.44.49.09.8,1.16.18.09v-.84l.31.18.09.45.8.22.36-.26.14.09v.62l.36.44.44.09.98,1.6.58.18.18-.76c1.02,1.64,2.18,3.2,3.55,4.58l-3.64,3.64c-5.42-5.46-8.53-12.8-8.71-20.48h0ZM82.92,375.16h1.55l-.36,1.24.45.49-.49.75h-.85l-.05-.04c-.13-.8-.22-1.65-.26-2.45h0ZM85.81,375.16h1.2l.18.36-.26,1.2-.13.22.44.98-.31.18-.22-.27-.09.09.22.58.36.66h.18l.09-.62-.18-.22v-.4l-.05-.84.27-1.51-.27-.4h.84c.18,3.07,1.42,5.95,3.56,8.18l-3.64,3.6c-.36-.4-.75-.8-1.07-1.2l.18-1.29-.53-1.24-.14-1.95-.62-1.2.13-.76-.76-1.42-.62-.31.26-.76-.26-.58.26-.66h.71l.27-.4ZM114.87,375.2h3.95c-.18,4.4-1.95,8.57-4.97,11.73l-.53-.53.22-.71-.4-1.6-.8,1.2-.49-.49.36-.49.49-.98-.18-.27.31-.71-.05-.66-.18-.66-.44-.14-.18.36-.27-.09c.4-.58.75-1.25,1.07-1.87l.45-.18.27-.36.13.14.31-.36-.26-.31.22-.05.4.18h.8l.49-.27,1.24-.36-.22-.4-.09-.49.66.31.27-.13-.14-.53-.84.31-.89-.18-.71-1.42ZM89.1,375.78l.76.8h.71l.93.62.27-.13.66.49-.31.22.76.49-.05-.53.4-.66.44.44.45.62-.8.22.36.71.53-.31-.09-.22.4-.27.22-1.11c.31.67.71,1.29,1.2,1.82l-3.64,3.64c-1.78-1.87-2.89-4.26-3.2-6.84h0ZM66.75,377.82c-.27,4.22-3.11,6.27-1.2,13.95-3.33-6.53-8.48-8.97-9.99-13.41.09,12.22,9.91,14.04,12.39,17.41-2.09-7.77,1.6-10.49-1.2-17.95ZM134.99,377.82c-2.8,7.46.89,10.18-1.2,17.95,2.49-3.38,12.3-5.2,12.39-17.41-1.51,4.49-6.66,6.88-9.99,13.41,1.91-7.69-.94-9.73-1.2-13.95ZM103.09,379.33c0,.22-.05,1.24-.05,1.78.58-.31.98-.58.98-1.02,0-.27-.35-.53-.84-.76h-.09ZM109.22,384.22l.93.67.71.36.36.36-.18.18-1.11-.31-.36.13-.62-.49-.58-.22c.31-.22.58-.44.84-.67h0ZM101.89,386.48s-.4.13-.62.22c-.13.04-.53.22-.8.31-.27.09-.58.23-.58.31,0,0,.26,13.68.26,13.95,0,2.8,1.43,2.84,1.43,0,0-.18.31-14.79.31-14.79h0ZM69.02,387.02c.71,3.24-1.33,8,1.91,12.48-3.33-3.73-10.44-4.71-13.33-10.39,3.6,13.91,13.02,11.06,17.24,14.08-3.47-5.02-.62-8.35-5.82-16.17ZM132.68,387.02c-5.2,7.82-2.36,11.15-5.82,16.17,4.26-3.02,13.64-.18,17.24-14.08-2.89,5.69-9.95,6.66-13.28,10.39,3.24-4.49,1.2-9.2,1.86-12.48h0ZM75.06,387.73l.93,1.46.05-.22-.44-1.02-.53-.22ZM113.89,388.31l3.64,3.64c-1.33,1.29-2.84,2.44-4.49,3.38l.49-1.02-.18-.44.71-.62v-.36l-.62-.4.49-1.02.76-.98-.76-.8h-.58l-.36-.58c.31-.27.62-.54.89-.8h0ZM83.06,389.64l1.16.66.22.18-.85.85c-.4-.4-.76-.8-1.11-1.24l.58-.45ZM102.83,390.13l-.05,2.05c1.6.8,3.11,1.95,3.73,4.09.27-3.55-1.73-5.06-3.68-6.13h0ZM73.99,395.28c1.73,2.67-.04,6,5.42,11.15-5.33-3.15-12.75-1.82-16.3-6.04,6.13,11.73,16.88,6.93,19.9,8.4-2.89-4-.93-6.26-9.02-13.5ZM127.75,395.28c-8.13,7.24-6.13,9.51-9.06,13.5,3.07-1.47,13.81,3.33,19.9-8.4-3.51,4.26-10.92,2.89-16.26,6.04,5.46-5.2,3.69-8.53,5.42-11.15ZM92.78,408.03c-3.02.09-5.99.58-8.88,1.33-4.89,1.29-9.11,2.31-12.8.44,3.51,3.11,7.64,4.26,13.6,3.6,4.93-.53,8.93-3.02,13.6-2.97h.18c-2.93,1.47-5.56,3.51-7.69,6l2.27.31s2.35-4.75,7.82-6c5.46,1.24,7.82,6,7.82,6l2.27-.31c-2.13-2.49-4.76-4.53-7.69-6h.18c4.66-.04,8.66,2.44,13.6,2.97,5.95.62,10.04-.49,13.6-3.6-3.69,1.87-7.91.85-12.8-.44-2.89-.76-5.86-1.25-8.88-1.33-2.75-.04-5.51.4-8.09,1.38-2.58-.98-5.33-1.42-8.08-1.38h0ZM76.74,423.05v19.59h3.26v-19.59h-3.26ZM89.95,423.05v8.09h-.04c-.61-1.36-1.97-2.22-3.47-2.15-2.9,0-4.65,2.54-4.65,6.95,0,3.72,1.39,6.91,4.72,6.91,2.08,0,3.04-1.15,3.58-2.29h.07c0,.68.03,1.4.1,2.08h3.05c-.07-.75-.11-1.54-.11-2.29v-17.29h-3.26ZM141.93,423.05v19.59h3.22v-19.59h-3.22ZM155.83,423.05v19.59h3.22v-7.84c0-1.72.61-3.15,2.29-3.15,1.32,0,1.86.86,1.86,2.94v8.05h3.22v-8.66c0-2.72-.93-4.98-3.97-4.98-2,0-2.76,1.11-3.33,1.94h-.07v-7.88h-3.22ZM35.07,424.41l3.72,18.26h3.94l2.86-14.97h.04l2.76,14.97h4.01l3.76-18.26h-3.04l-2.69,14.07h-.04l-2.72-14.07h-4.09l-2.76,14.07h-.03l-2.58-14.07h-3.15ZM102.84,424.41v18.22h3.37v-8.05h5.41v8.09h3.33v-18.26h-3.33v7.41h-5.41v-7.41h-3.37ZM152.1,425.41l-3.22,1h-.04v2.79h-2.15v2.36h2.15v7.34c0,2.83,1.36,3.94,3.76,3.94.75,0,1.51-.14,2.19-.43v-2.29c-.36.18-.79.29-1.22.29-.93,0-1.47-.43-1.47-1.86v-7.02h2.69v-2.36h-2.69v-3.76ZM60.88,428.96c-2.72,0-5.9,1.43-5.94,6.91,0,5.62,3.18,6.94,5.94,6.94s5.91-1.28,5.91-6.94-3.15-6.91-5.91-6.91ZM133.81,428.96c-1.47,0-2.94.35-4.26,1l.22,2.58c1.07-.82,2.36-1.29,3.68-1.32,1.86,0,2.51,1.25,2.51,2.58v.5h-.65c-4.12,0-7.09.93-7.09,4.58,0,2.51,1.94,3.94,4.01,3.94,1.93,0,2.93-.93,3.76-2.04h.04c-.04.61.03,1.22.18,1.83h2.94c-.11-.79-.18-1.58-.18-2.36v-5.87c0-3.37-.97-5.4-5.16-5.4h0ZM74.81,428.99c-2.04,0-3.04,1.61-3.44,2.65h-.04c0-.82-.07-1.65-.1-2.47h-2.94c.07.75.11,1.47.11,2.22l.04,11.28h3.22v-7.38c0-2.51,1.47-3.32,2.79-3.32.29,0,.61.07.9.14v-3.04c-.18-.04-.36-.07-.54-.07h0ZM122.1,428.99c-3.44,0-5.55,3.12-5.55,7.13,0,3.62,1.9,6.73,6.23,6.73,1.36,0,2.76-.28,4.01-.86l-.11-2.51c-.61.43-1.57,1.04-3.54,1.04-2.51,0-3.43-1.39-3.43-3.68h7.77v-.65c0-5.51-2.47-7.2-5.37-7.2h0ZM122.06,431.18c1.47,0,2.26,1.22,2.26,3.58h-4.65c0-1.79.68-3.58,2.4-3.58h0ZM60.88,431.28c2.11,0,2.58,2.36,2.58,4.62s-.5,4.65-2.58,4.65-2.58-2.4-2.58-4.65.47-4.62,2.58-4.62ZM87.41,431.35c1.79,0,2.51,1.9,2.51,4.51s-.64,4.58-2.54,4.58-2.36-1.54-2.4-4.65c0-2.69.65-4.44,2.44-4.44h0ZM135.63,436.04h.32v.78c0,2.4-.71,3.84-2.65,3.84h-.26c-1.07-.07-1.89-1-1.82-2.08,0-1.97,1.64-2.54,4.4-2.54h0ZM98.33,446.82v3.18h3.37v-3.18h-3.37ZM136.6,446.82v3.18h3.33v-3.18h-3.33ZM42.48,447.5c-3.79,0-7.27,2.83-7.27,9.38s3.47,9.38,7.27,9.38,7.27-2.83,7.27-9.38-3.47-9.38-7.27-9.38ZM131.95,448.79l-3.22,1-.04,2.76h-2.15v2.36h2.15v7.38c0,2.79,1.36,3.9,3.76,3.9.75.04,1.5-.11,2.18-.43v-2.29c-.36.21-.79.29-1.22.29-.93,0-1.47-.43-1.47-1.86v-6.98h2.68v-2.36h-2.68v-3.76ZM42.48,450.08c2.11,0,3.83,1.75,3.83,6.8s-1.72,6.84-3.83,6.84-3.83-1.83-3.83-6.84,1.72-6.8,3.83-6.8ZM77.45,452.33c-1.47,0-2.93.33-4.26,1.01l.21,2.57c1.07-.82,2.36-1.29,3.69-1.33,1.86,0,2.51,1.25,2.51,2.58v.5h-.64c-4.12,0-7.09.93-7.09,4.58,0,2.51,1.93,3.94,4.01,3.94,1.93,0,2.94-.93,3.76-2.04h.04c-.04.61.03,1.22.18,1.83h2.93c-.11-.79-.18-1.58-.18-2.36v-5.87c0-3.37-.97-5.41-5.16-5.41h0ZM120.06,452.33c-1.47,0-2.93.33-4.26,1.01l.21,2.57c1.07-.82,2.36-1.29,3.69-1.33,1.86,0,2.51,1.25,2.51,2.58v.5h-.65c-4.12,0-7.09.93-7.09,4.58,0,2.51,1.94,3.94,4.01,3.94,1.93,0,2.93-.93,3.76-2.04h.04c-.04.61.03,1.22.18,1.83h2.93c-.11-.79-.18-1.58-.18-2.36v-5.87c0-3.37-.97-5.41-5.16-5.41h0ZM147.62,452.33c-2.72,0-5.9,1.47-5.94,6.91,0,5.66,3.18,6.95,5.94,6.95s5.91-1.29,5.91-6.95-3.16-6.91-5.91-6.91ZM57.51,452.37c-2,0-3.04,1.61-3.43,2.65h-.04c0-.82-.07-1.65-.11-2.47h-2.93c.07.75.1,1.47.1,2.22v11.28h3.22v-7.37c0-2.51,1.47-3.33,2.79-3.33.32,0,.64.07.93.15v-3.04c-.18-.04-.36-.07-.54-.07h0ZM63.74,452.37c-3.54,0-4.87,3.26-4.87,6.98,0,5.44,2.83,6.7,4.69,6.7,2.11,0,3.01-1.25,3.54-2.29h.04v1.29c0,2.11-.5,4.22-3.55,4.22-1.4-.04-2.75-.43-3.97-1.14l-.14,2.86c1.47.54,3.04.82,4.61.82,4.94,0,6.23-2.97,6.23-7.19v-9.92c0-.72.07-1.4.11-2.11h-2.93c-.04.68-.11,1.36-.11,2.08h-.11c-.68-1.18-1.57-2.29-3.54-2.29h0ZM91.88,452.37c-2.18,0-3.11,1.43-3.58,2.25h-.04c0-.68-.07-1.4-.1-2.08h-3.05c.07.75.11,1.47.11,2.22v11.2h3.22v-7.84c0-1.72.61-3.15,2.29-3.15,1.32,0,1.86.86,1.86,2.93v8.09h3.26v-8.67c0-2.72-.93-4.97-3.98-4.97h0ZM162.77,452.37c-2.18,0-3.11,1.43-3.58,2.25h-.04c0-.68-.07-1.4-.11-2.08h-3.04c.07.75.11,1.47.11,2.22l.03,11.2h3.22v-7.84c0-1.72.61-3.15,2.29-3.15,1.32,0,1.86.86,1.86,2.93v8.09h3.22v-8.67c0-2.72-.93-4.97-3.98-4.97h0ZM98.4,452.55v13.46h3.22v-13.46h-3.22ZM104.34,452.55v2.47h5.58l-5.77,8.2h-.04v2.79h9.21v-2.47h-5.84l5.66-8.23v-2.76h-8.8ZM136.67,452.55l.04,13.46h3.22v-13.46h-3.26ZM147.62,454.66c2.11,0,2.58,2.36,2.58,4.62s-.5,4.65-2.58,4.65-2.57-2.4-2.57-4.65.46-4.62,2.57-4.62ZM64.57,454.84c1.54-.04,2.61,1.47,2.61,4.3,0,3.04-.82,4.51-2.86,4.51-1.11,0-2.11-1.32-2.11-4.47,0-2.72.65-4.3,2.36-4.34ZM79.28,459.42h.29l.04.79c0,2.4-.72,3.83-2.65,3.83h-.25c-1.07-.07-1.9-1-1.83-2.08,0-1.97,1.65-2.54,4.4-2.54h0ZM121.88,459.42h.32v.79c0,2.4-.72,3.83-2.65,3.83h-.25c-1.07-.07-1.9-1-1.83-2.08,0-1.97,1.65-2.54,4.4-2.54h0Z"/>
</svg>