<?xml version="1.0" encoding="utf-8"?>
<!-- Generator: Adobe Illustrator 19.2.1, SVG Export Plug-In . SVG Version: 6.00 Build 0)  -->
<svg version="1.1" id="layer" xmlns="http://www.w3.org/2000/svg" xmlns:xlink="http://www.w3.org/1999/xlink" x="0px" y="0px"
	 viewBox="0 0 652 652" style="enable-background:new 0 0 652 652;" xml:space="preserve">
<style type="text/css">
	.st0{fill:#0092D1;}
	.st1{opacity:0;fill:none;stroke:#FFFFFF;stroke-width:0.2988;stroke-linecap:round;stroke-linejoin:round;stroke-miterlimit:10;}
</style>
<g>
	<path class="st0" d="M29.7,310.2c3.3-10.8,9.6-7.5,12.3-19.7l-1.2-0.6c-3,5.1-6.6,6.3-8.7,9.3l-1.2-0.3c0.6-3.9-0.6-7.5,3.9-13.1
		l-0.9-0.6c-10.5,5.7-6.9,22.4-5.4,25.1H29.7z M41.7,347.3c0,0,0.3-0.6,0.9-0.9c-7.8-12.8-0.6-12.8-7.5-25.1c0,0-0.9,0.3-1.2,0.3
		c0.9,5.1-1.5,6.6,1.2,14.3l-1.2,0.6c-3.3-6-9.6-9.3-11.4-15.8l-1.2,0.3C21.3,341,40.8,347,41.7,347.3 M34.2,294.1
		c7.8-5.7,6.3-8.7,11.4-13.1c0,0-0.3-0.6-0.6-0.9c-9,4.8-10.5,8.7-12,13.4C33,293.5,33.6,293.8,34.2,294.1 M30.6,329l1.2-0.6
		c-0.9-11.4,5.4-11.1,3.6-23.6l-1.2-0.3c-1.8,5.4-3.6,4.8-4.5,12.2h-1.2c-1.8-7.5-4.2-5.7-3.3-16.1c-0.3,0-0.6,0-1.2-0.3
		C17.5,315,28.5,326.9,30.6,329 M61.7,352.9c0,0,0-0.6,0.3-0.9c-12.3,0.6-10.8-8.7-20.6-14.6c-0.3,0.3-0.9,0.6-0.9,0.6
		c2.7,4.8,2.4,7.5,7.5,13.1l-0.6,0.9c-7.2-4.5-11.7-2.7-19.1-10.5c0,0-0.3,0.3-0.9,0.6C39,361.9,53,358,61.7,352.9 M75.7,353.8
		c-12.8-4.2-20,10.2-35.3,3.9l-0.6,0.9c15.2,14,23-5.4,33.5-3.6c-3,1.5-6,3.9-9.6,7.5c0.9,1.2,1.5,1.8,3,3.3c3.3-5.7,6.3-8.7,9-9.9
		c2.7,1.2,5.7,4.2,9,9.9c1.5-1.5,2.1-2.1,3-3.3c-3.6-3.6-6.6-6-9.6-7.5c10.5-1.8,18.2,17.6,33.5,3.6l-0.6-0.9
		C95.7,364,88.3,349.7,75.7,353.8 M104.1,352l-0.6-0.9c5.1-5.7,4.8-8.4,7.5-13.1c0,0-0.6-0.3-0.9-0.6c-9.9,6-8.4,15.2-20.6,14.6
		c0.3,0.3,0.3,0.9,0.3,0.9c8.7,5.1,22.7,9,34.4-10.8c-0.6-0.3-0.9-0.6-0.9-0.6C115.8,349.4,111.3,347.6,104.1,352 M119.4,299.2
		c-2.1-3-5.7-4.2-8.7-9.3l-1.2,0.6c2.7,12.2,9,9,12.3,19.7h1.2c1.5-2.7,5.1-19.4-5.4-25.1l-0.9,0.6c4.5,5.7,3.3,9.3,3.9,13.1
		L119.4,299.2z M117.3,294.1c0.6-0.3,1.2-0.6,1.2-0.6c-1.5-4.8-3-8.7-12-13.4c-0.3,0.3-0.6,0.9-0.6,0.9
		C111,285.4,109.5,288.4,117.3,294.1 M116.4,321.3c-6.9,12.2,0.3,12.2-7.5,25.1c0.6,0.3,0.9,0.9,0.9,0.9c0.9-0.3,20.3-6.3,20.3-26.3
		l-1.2-0.3c-1.8,6.6-8.1,9.9-11.4,15.8l-1.2-0.6c2.7-7.8,0.3-9.3,1.2-14.3C117.3,321.6,116.4,321.3,116.4,321.3 M122.9,316.8h-1.2
		c-0.9-7.5-2.7-6.9-4.5-12.2l-1.2,0.3c-1.8,12.5,4.5,12.2,3.6,23.6l1.2,0.6c2.1-2.1,13.1-14,6.6-28.7c-0.6,0.3-0.9,0.3-1.2,0.3
		C127.1,311.1,124.7,309.3,122.9,316.8"/>
	<path class="st0" d="M100.5,337.4l-5.1-5.1c4.2-4.5,6.6-10.5,6.9-16.7h7.5C109.5,324,105.9,331.7,100.5,337.4 M41.7,315.6h7.5
		c0.3,6.3,2.7,12.2,6.9,16.7l-5.1,5.1C45.5,331.7,42,324,41.7,315.6 M50.9,291.1l5.1,5.1c-4.2,4.5-6.6,10.5-6.9,16.7h-7.5
		C42,304.5,45.5,296.8,50.9,291.1 M92.8,312.9c-0.3-3.6-1.8-7.2-4.2-9.9l5.1-5.1c3.9,3.9,6,9.3,6.3,14.9H92.8z M88.6,325.5
		c2.4-2.7,3.9-6.3,4.2-9.9h7.2c-0.3,5.7-2.4,11.1-6.3,14.9L88.6,325.5z M76.9,341c6.6-0.3,12.3-3,16.7-6.9l5.4,5.1
		c-6,5.4-13.7,8.7-22.1,9V341z M57.8,334.1c4.5,3.9,10.2,6.6,16.7,6.9v7.2c-8.4-0.3-16.1-3.6-22.1-9L57.8,334.1z M58.7,315.6
		c0.3,3.6,1.8,7.2,4.2,9.9l-5.1,5.1c-3.9-3.9-6-9.3-6.3-14.9H58.7z M62.9,303c-2.4,2.7-3.9,6.3-4.2,9.9h-7.2
		c0.3-5.7,2.4-11.1,6.3-14.9L62.9,303z M74.5,287.5c-6.6,0.3-12.3,3-16.7,6.9l-5.4-5.1c6-5.4,13.7-8.7,22.1-9V287.5z M86.8,301.3
		c-2.7-2.1-6-3.6-9.9-3.9v-7.5c5.7,0.3,11.1,2.7,15.2,6.3L86.8,301.3z M82.9,312.9c-0.3-0.9-0.6-2.1-1.2-3l5.1-5.1
		c2.1,2.4,3.3,5.1,3.6,8.1H82.9z M81.7,318.6c0.6-0.9,0.9-2.1,1.2-3h7.5c-0.3,3-1.5,5.7-3.6,8.1L81.7,318.6z M76.9,331.1
		c3.9-0.3,7.2-1.8,9.9-3.9l5.4,5.1c-4.2,3.6-9.6,6-15.2,6.3V331.1z M64.7,327.2c2.7,2.1,6,3.6,9.9,3.9v7.5
		c-5.7-0.3-11.1-2.7-15.2-6.3L64.7,327.2z M68.6,315.6c0.3,0.9,0.6,2.1,1.2,3l-5.1,5.1c-2.1-2.4-3.3-5.1-3.6-8.1H68.6z M69.8,309.9
		c-0.6,0.9-0.9,2.1-1.2,3h-7.5c0.3-3,1.5-5.7,3.6-8.1L69.8,309.9z M74.5,297.4c-3.9,0.3-7.2,1.8-9.9,3.9l-5.4-5.1
		c4.2-3.6,9.6-6,15.2-6.3V297.4z M79.9,308.4c-0.9-0.6-1.8-1.2-3-1.5v-7.2c3,0.3,6,1.5,8.1,3.3L79.9,308.4z M76.9,321.6
		c1.2-0.3,2.1-0.9,3-1.5l5.4,5.4c-2.4,1.8-5.4,3-8.4,3.3V321.6z M71.5,320.1c0.9,0.6,1.8,1.2,3,1.5v7.2c-3-0.3-6-1.5-8.1-3.3
		L71.5,320.1z M74.5,306.9c-1.2,0.3-2.1,0.9-3,1.5l-5.1-5.4c2.1-1.8,5.1-3,8.1-3.3V306.9z M80.5,314.1c0,2.7-2.1,5.1-4.8,5.1
		c-2.7,0-4.8-2.4-4.8-5.1c0-2.4,2.1-4.8,4.8-4.8C78.4,309.3,80.5,311.7,80.5,314.1 M93.7,294.4c-4.5-3.9-10.2-6.6-16.7-6.9v-7.2
		c8.4,0.3,16.1,3.6,22.1,9L93.7,294.4z M109.8,312.9h-7.5c-0.3-6.3-2.7-12.2-6.9-16.7l5.1-5.1C105.9,296.8,109.5,304.5,109.8,312.9
		 M75.7,277.7c-20,0-36.5,16.4-36.5,36.4c0,20.3,16.4,36.7,36.5,36.7c20,0,36.5-16.4,36.5-36.7C112.2,294.1,95.7,277.7,75.7,277.7"
		/>
	<path class="st0" d="M85.6,322.5l-1.2-0.9l-0.3-1.2l0.9-0.6l0.9,0.9l0.3,0.9L85.6,322.5z M83.5,323.4l-0.9,0.6h-1.2l0.3-1.2
		l0.6-0.3l1.2,0.6V323.4z M90.7,322.2l0.6-1.8l0.6,1.2l0.6-0.3l0.3-0.9l0.6,0.3l3.3-0.9l-0.9-1.8l-0.9-0.9l-1.2-1.8l1.5-3l0.9-0.6
		l0.9-1.2l0.9-4.2l-0.3-1.5l-1.2-0.3l0.3-1.2l-0.9-0.3l0.6-0.9l-0.3-0.3l-0.9,0.3l-1.2-1.8l-0.9-0.3l0.3-0.6l-5.7-5.1v0.3l0.3,1.8
		l5.7,6.9v2.1l2.1,1.5l0.6,3l-0.6,1.2l-0.9,0.3l0.6-2.1l-1.5-1.8l-1.2,0.9l-0.3-0.3l0.3-0.9l-1.5-1.5l-3.3-0.6l-1.2,2.1l-1.8-2.4
		h-1.2l0.9,0.6l-0.6,1.2h-0.9l-1.8,2.1h-1.5l-1.2-0.6l0.6-0.9l1.8-0.9l0.3-1.5l-0.3-0.6l-1.8,1.5l-4.5-1.2l-1.5,0.6l-0.3,2.1
		l-6.3-1.8l-5.4,2.7l-0.3,0.9l-1.2-0.3l-0.6,3l-0.3,2.1l-2.1,2.7l0.3,3l-2.7-2.4l-0.9,0.3l-2.1,1.5l-0.3,1.8l0.3,1.2l-0.6,0.9
		l-3-1.5l-0.9,0.3l-0.3,0.6l-0.3,0.3l-0.6-0.6h-0.6l-0.6,2.1l0.6,2.4l2.1,1.5l0.6-0.9l1.2,1.8l2.7,1.5l0.9,1.8l3.3,2.1l1.5-0.3
		l2.1,0.9l2.1-1.2l1.8,0.3l0.6-0.6l-3.6-4.5l0.6-1.2l-1.2-2.1l0.3-2.4l-1.8-4.2l-0.3-2.1l1.5-0.9l1.8-4.8h0.9l0.3,5.7h-2.1l-0.3,2.1
		l0.6,0.6l0.6-1.8l5.4,0.9l-0.3,0.6l2.1,1.8l3.3-3.3l1.2-2.1l-0.3-0.6l-0.6,0.3l-0.3,0.6l-4.8,1.2l1.8-3.6l1.5,0.3l1.2,0.6h0.9
		l-0.3-2.1l1.2-0.6l0.3-1.2l1.8-0.6l-0.6-1.5l0.9-0.6l1.5,0.9l-1.2,0.6l0.9,1.2l0.3-0.6l1.5,1.8h0.9v0.6l0.6,0.6l-0.9,1.2l1.2,1.2
		v1.2h0.6l-1.2,2.1h-1.5l-2.4,4.2l0.3,0.6l-0.3,0.3v0.6l0.6,0.9l-1.5,0.3v2.1l3.3-2.1l2.1,0.9l0.9-0.3v-0.3l0.6-0.6l0.6,0.6l1.5-0.9
		l0.6,0.9l-0.9,1.2l-2.4,0.9v0.9l-2.1-0.3l-0.6-0.9h-1.2l-0.9,0.6l-1.8-0.3l-3,1.8l-0.9,2.1l0.9,2.1l6.3,3.3l2.1-0.3l-0.3,1.8
		l0.9,1.8l4.8,3.9h0.9l3-2.1l3-5.7l-0.9-0.6l1.5-2.4l-3.3-0.6v-1.2l1.8-1.2l0.3-2.1l-0.3-2.1l-0.6,0.3l-0.3,1.5l-0.3,0.6l-3,0.6
		l-3.3-2.1l0.6-0.9l5.1,1.5l1.5-4.2l-0.9-0.9l-0.9,0.3l-2.1,0.9l0.3-0.6L90.7,322.2z M96,329.6l-0.3,0.3v0.6l-0.3,0.9l-0.3,2.1
		l0.6,0.6h1.5l0.6-1.2l-0.6-2.1L96,329.6z M76.3,315.9l-0.3-0.3h-1.8l-0.6,1.5l-1.8,1.5l1.5,0.9l2.4-1.5L76.3,315.9z M98.4,310.8
		l0.3-0.3V309l-0.6,0.6l-0.3,0.9l-0.9,1.8l0.3,1.5L99,315l-0.3-3.3L98.4,310.8z M96.9,318v0.9l1.2,0.9l0.6-0.6v-0.6l-0.9-0.6H96.9z
		 M101.1,297.7l-1.5-0.6l0.3-1.5l-5.7-6l-3.9-0.9l-0.3,1.8l1.8,1.2l-0.6,3l1.5,0.3l1.2,1.2l0.3,2.1l1.5,0.6l1.8,2.7l2.1-1.2l1.5,3
		l2.1-0.9v-0.9L101.1,297.7z M95.5,288.7l-0.9-1.5h-1.5v0.6l2.1,0.9H95.5z M80.2,285.1l2.1-0.9l1.2,0.6l0.9-0.9l0.3-0.3l-2.1-1.2H82
		l-2.4,1.2H79l-0.3,0.3l1.2,1.2H80.2z"/>
	<path class="st1" d="M85.6,322.5l-1.2-0.9l-0.3-1.2l0.9-0.6l0.9,0.9l0.3,0.9L85.6,322.5z M83.5,323.4l-0.9,0.6h-1.2l0.3-1.2
		l0.6-0.3l1.2,0.6V323.4z M90.7,322.2l0.6-1.8l0.6,1.2l0.6-0.3l0.3-0.9l0.6,0.3l3.3-0.9l-0.9-1.8l-0.9-0.9l-1.2-1.8l1.5-3l0.9-0.6
		l0.9-1.2l0.9-4.2l-0.3-1.5l-1.2-0.3l0.3-1.2l-0.9-0.3l0.6-0.9l-0.3-0.3l-0.9,0.3l-1.2-1.8l-0.9-0.3l0.3-0.6l-5.7-5.1v0.3l0.3,1.8
		l5.7,6.9v2.1l2.1,1.5l0.6,3l-0.6,1.2l-0.9,0.3l0.6-2.1l-1.5-1.8l-1.2,0.9l-0.3-0.3l0.3-0.9l-1.5-1.5l-3.3-0.6l-1.2,2.1l-1.8-2.4
		h-1.2l0.9,0.6l-0.6,1.2h-0.9l-1.8,2.1h-1.5l-1.2-0.6l0.6-0.9l1.8-0.9l0.3-1.5l-0.3-0.6l-1.8,1.5l-4.5-1.2l-1.5,0.6l-0.3,2.1
		l-6.3-1.8l-5.4,2.7l-0.3,0.9l-1.2-0.3l-0.6,3l-0.3,2.1l-2.1,2.7l0.3,3l-2.7-2.4l-0.9,0.3l-2.1,1.5l-0.3,1.8l0.3,1.2l-0.6,0.9
		l-3-1.5l-0.9,0.3l-0.3,0.6l-0.3,0.3l-0.6-0.6h-0.6l-0.6,2.1l0.6,2.4l2.1,1.5l0.6-0.9l1.2,1.8l2.7,1.5l0.9,1.8l3.3,2.1l1.5-0.3
		l2.1,0.9l2.1-1.2l1.8,0.3l0.6-0.6l-3.6-4.5l0.6-1.2l-1.2-2.1l0.3-2.4l-1.8-4.2l-0.3-2.1l1.5-0.9l1.8-4.8h0.9l0.3,5.7h-2.1l-0.3,2.1
		l0.6,0.6l0.6-1.8l5.4,0.9l-0.3,0.6l2.1,1.8l3.3-3.3l1.2-2.1l-0.3-0.6l-0.6,0.3l-0.3,0.6l-4.8,1.2l1.8-3.6l1.5,0.3l1.2,0.6h0.9
		l-0.3-2.1l1.2-0.6l0.3-1.2l1.8-0.6l-0.6-1.5l0.9-0.6l1.5,0.9l-1.2,0.6l0.9,1.2l0.3-0.6l1.5,1.8h0.9v0.6l0.6,0.6l-0.9,1.2l1.2,1.2
		v1.2h0.6l-1.2,2.1h-1.5l-2.4,4.2l0.3,0.6l-0.3,0.3v0.6l0.6,0.9l-1.5,0.3v2.1l3.3-2.1l2.1,0.9l0.9-0.3v-0.3l0.6-0.6l0.6,0.6l1.5-0.9
		l0.6,0.9l-0.9,1.2l-2.4,0.9v0.9l-2.1-0.3l-0.6-0.9h-1.2l-0.9,0.6l-1.8-0.3l-3,1.8l-0.9,2.1l0.9,2.1l6.3,3.3l2.1-0.3l-0.3,1.8
		l0.9,1.8l4.8,3.9h0.9l3-2.1l3-5.7l-0.9-0.6l1.5-2.4l-3.3-0.6v-1.2l1.8-1.2l0.3-2.1l-0.3-2.1l-0.6,0.3l-0.3,1.5l-0.3,0.6l-3,0.6
		l-3.3-2.1l0.6-0.9l5.1,1.5l1.5-4.2l-0.9-0.9l-0.9,0.3l-2.1,0.9l0.3-0.6L90.7,322.2z M96,329.6l-0.3,0.3v0.6l-0.3,0.9l-0.3,2.1
		l0.6,0.6h1.5l0.6-1.2l-0.6-2.1L96,329.6z M76.3,315.9l-0.3-0.3h-1.8l-0.6,1.5l-1.8,1.5l1.5,0.9l2.4-1.5L76.3,315.9z M98.4,310.8
		l0.3-0.3V309l-0.6,0.6l-0.3,0.9l-0.9,1.8l0.3,1.5L99,315l-0.3-3.3L98.4,310.8z M96.9,318v0.9l1.2,0.9l0.6-0.6v-0.6l-0.9-0.6H96.9z
		 M101.1,297.7l-1.5-0.6l0.3-1.5l-5.7-6l-3.9-0.9l-0.3,1.8l1.8,1.2l-0.6,3l1.5,0.3l1.2,1.2l0.3,2.1l1.5,0.6l1.8,2.7l2.1-1.2l1.5,3
		l2.1-0.9v-0.9L101.1,297.7z M95.5,288.7l-0.9-1.5h-1.5v0.6l2.1,0.9H95.5z M80.2,285.1l2.1-0.9l1.2,0.6l0.9-0.9l0.3-0.3l-2.1-1.2H82
		l-2.4,1.2H79l-0.3,0.3l1.2,1.2H80.2z"/>
	<path class="st0" d="M236.8,279.7v62.4c0,12.5-9.3,23.6-40.6,23.6s-40.6-11.1-40.6-23.6v-62.4h23.3v60.6c0,6.9,4.8,10.8,17.3,10.8
		c12.5,0,17.6-3.9,17.6-10.8v-60.6H236.8z"/>
	<polygon class="st0" points="278.6,306.3 278.6,363.1 256.8,363.1 256.8,279.7 285.5,279.7 320.7,339.2 320.7,279.7 342.6,279.7 
		342.6,363.1 313.9,363.1 	"/>
	<polygon class="st1" points="278.6,306.3 278.6,363.1 256.8,363.1 256.8,279.7 285.5,279.7 320.7,339.2 320.7,279.7 342.6,279.7 
		342.6,363.1 313.9,363.1 	"/>
	<path class="st0" d="M504.5,289.3h-25.4v34.4h25.4c13.7,0,19.1-2.7,19.1-12.5v-9.3C523.6,292.9,518.3,289.3,504.5,289.3
		 M464.8,279.7h40.3c23.9,0,32.3,7.8,32.3,20.6v12.2c0,12.8-8.4,20.6-32.3,20.6h-26v29.9h-14.3V279.7z"/>
	<path class="st0" d="M431,342.8c0,10.2-8.4,12.8-26,12.8c-17.3,0-25.7-2.7-25.7-12.8v-42.7c0-10.2,8.4-12.5,25.7-12.5
		c17.6,0,26,2.4,26,12.5V342.8z M405,277.7c-28.7,0-40,8.4-40,22.1v43.3c0,14,11.4,22.1,40,22.1c28.7,0,40.3-8.1,40.3-22.1v-43.3
		C445.4,286,433.7,277.7,405,277.7"/>
	<path class="st0" d="M584.9,364.9c-10.5,0-21.5-1.5-31.1-4.5l2.4-8.7c10.2,2.4,18.8,3.3,29.3,3.3c17.6,0,21.5-3.3,21.5-12.8
		c0-11.4-0.3-12.5-23-16.4c-26.9-4.5-30.2-8.7-30.2-26c0-14.6,8.1-21.5,35.6-21.5c9.6,0,19.1,0.9,28.1,2.7l-1.2,9.3
		c-9-1.5-17.3-2.4-26.6-2.4c-18.2,0-21.5,2.7-21.5,12.2c0,11.7,0,12.2,22.1,16.4c29.6,5.7,31.1,9.3,31.1,25.4
		C621.3,356.5,615.7,364.9,584.9,364.9"/>
</g>
</svg>
