<svg xmlns="http://www.w3.org/2000/svg" xml:space="preserve" viewBox="0 0 128 128" enable-background="new 0 0 128 128" id="badminton">
  <g>
    <g>
      <g>
        <path d="M107.5,127.5c-5.1,0-10.2-1.9-14.1-5.8l-12.5-12.5c-1.2-1.2-2.6-2.2-4.2-2.9L15.6,78.7l-8.7-4.3     c-3.4-1.7-5.7-4.5-6.2-7.6c-0.5-2.7,0.5-5.4,2.6-7.6c2.7-2.7,7-4.1,11.2-3.9c-1-3.5,0-7.3,2.8-10.1c2.8-2.8,6.9-4,10.9-3.5     c-0.7-3.7,0.4-7.8,3.1-10.5c2.7-2.7,6.8-3.8,10.5-3.1c-0.5-4,0.7-8.2,3.5-10.9c2.8-2.8,6.6-3.7,10.1-2.7     c-0.2-4.2,1.2-8.5,3.9-11.2l0,0l0,0c2.1-2.1,4.8-3.1,7.6-2.6c3.1,0.5,5.9,2.8,7.6,6.2l4.3,8.7l27.6,61.2c0.7,1.6,1.7,3,2.9,4.2     l12.4,12.5c3.8,3.8,5.9,8.8,5.9,14.1c0,5.3-2.1,10.4-5.9,14.1C117.7,125.5,112.6,127.5,107.5,127.5z M13.5,59.3     c-2.9,0-5.7,1-7.5,2.7c-1.2,1.2-1.7,2.6-1.5,4.1c0.3,1.8,1.8,3.5,4,4.7l8.7,4.3l61.1,27.5c2,0.9,3.8,2.2,5.4,3.7l12.5,12.5     c6.2,6.2,16.4,6.2,22.6,0c3-3,4.7-7,4.7-11.3c0-4.3-1.7-8.3-4.7-11.3l-12.4-12.5c-1.5-1.6-2.8-3.4-3.7-5.4L75.1,17.2l-4.3-8.6     c-1.1-2.3-2.8-3.7-4.7-4c-1.5-0.2-2.9,0.3-4.1,1.5l0,0c-2.6,2.6-3.5,7.5-2,11.5c0.3,0.9,0,1.8-0.8,2.3c-0.8,0.5-1.8,0.5-2.4-0.2     c-2.5-2.2-6.3-2.1-8.8,0.3c-2.6,2.6-3.2,7.1-1.5,10.6c0.4,0.8,0.2,1.8-0.5,2.4c-0.7,0.6-1.7,0.7-2.4,0.2c-3-2-7.1-1.6-9.6,0.9     c-2.5,2.5-2.9,6.7-0.9,9.7c0.5,0.8,0.4,1.8-0.2,2.4c-0.6,0.7-1.6,0.9-2.4,0.5c-3.5-1.7-8-1.1-10.6,1.4c-2.4,2.4-2.6,6.2-0.3,8.7     c0.6,0.7,0.7,1.7,0.2,2.4c-0.5,0.8-1.5,1.1-2.3,0.8C16.3,59.5,14.9,59.3,13.5,59.3z" fill="#303c42"></path>
      </g>
    </g>
    <g>
      <g>
        <path d="M55.3,95.4c-0.3,0-0.5-0.1-0.7-0.3c-0.4-0.4-0.4-1,0-1.4l39.2-39.2c0.4-0.4,1-0.4,1.4,0c0.4,0.4,0.4,1,0,1.4     L56,95.1C55.8,95.3,55.5,95.4,55.3,95.4z" fill="#303c42"></path>
      </g>
    </g>
    <g>
      <g>
        <path d="M87.4,63.3c-0.3,0-0.6-0.2-0.8-0.4L57.3,18.8c-0.3-0.5-0.2-1.1,0.3-1.4c0.5-0.3,1.1-0.2,1.4,0.3l29.2,44.1     c0.3,0.5,0.2,1.1-0.3,1.4C87.8,63.3,87.6,63.3,87.4,63.3z" fill="#303c42"></path>
      </g>
    </g>
    <g>
      <g>
        <path d="M72.1,78.6c-0.2,0-0.4-0.1-0.6-0.2L30.9,45.6c-0.4-0.3-0.5-1-0.2-1.4c0.3-0.4,1-0.5,1.4-0.1l40.6,32.8     c0.4,0.3,0.5,1,0.2,1.4C72.7,78.5,72.4,78.6,72.1,78.6z" fill="#303c42"></path>
      </g>
    </g>
    <g>
      <g>
        <path d="M64.3,86.4c-0.2,0-0.3,0-0.5-0.1L17.7,59c-0.5-0.3-0.6-0.9-0.4-1.4c0.3-0.5,0.9-0.6,1.4-0.4l46.1,27.3     c0.5,0.3,0.6,0.9,0.4,1.4C65,86.2,64.7,86.4,64.3,86.4z" fill="#303c42"></path>
      </g>
    </g>
    <g>
      <g>
        <path d="M79.4,71.3c-0.3,0-0.5-0.1-0.7-0.3L44.1,32.2c-0.4-0.4-0.3-1,0.1-1.4c0.4-0.4,1-0.3,1.4,0.1l34.6,38.8     c0.4,0.4,0.3,1-0.1,1.4C79.9,71.2,79.6,71.3,79.4,71.3z" fill="#303c42"></path>
      </g>
    </g>
    <g>
      <g>
        <path d="M96.4,122.8c-0.3,0-0.5-0.1-0.7-0.3l-11.2-11.2c-0.2-0.2-0.3-0.4-0.3-0.7c0-0.3,0.1-0.5,0.3-0.7l25.5-25.5     c0.2-0.2,0.4-0.3,0.7-0.3l0,0c0.3,0,0.5,0.1,0.7,0.3l11.2,11.2c0.4,0.4,0.4,1,0,1.4l-25.5,25.5C96.9,122.7,96.6,122.8,96.4,122.8     z M86.6,110.6l9.8,9.8l24-24l-9.8-9.8L86.6,110.6z" fill="#303c42"></path>
      </g>
    </g>
  </g>
</svg>
